<svg xmlns="http://www.w3.org/2000/svg" width="900" height="420" viewBox="0 0 900 420" role="img" aria-labelledby="title desc">
<title id="title">Pareto chart</title><desc id="desc">Rank causes and focus on the vital few</desc>
<rect width="900" height="420" rx="24" fill="#f8fafc"/>
<rect x="1" y="1" width="898" height="418" rx="23" fill="none" stroke="#dbeafe" stroke-width="2"/>
<text x="42" y="50" font-family="Arial, sans-serif" font-size="26" font-weight="700" fill="#0f172a">Pareto chart</text>
<text x="42" y="78" font-family="Arial, sans-serif" font-size="14" fill="#64748b">Rank causes and focus on the vital few</text>
<line x1="90" y1="350" x2="840" y2="350" stroke="#64748b" stroke-width="2"/><line x1="90" y1="350" x2="90" y2="110" stroke="#64748b" stroke-width="2"/><rect x="130" y="160" width="72" height="190" rx="8" fill="#2563eb" opacity="1.0"/><text x="166" y="372" text-anchor="middle" font-family="Arial" font-size="13" fill="#475569">C1</text><rect x="255" y="205" width="72" height="145" rx="8" fill="#2563eb" opacity="0.88"/><text x="291" y="372" text-anchor="middle" font-family="Arial" font-size="13" fill="#475569">C2</text><rect x="380" y="245" width="72" height="105" rx="8" fill="#2563eb" opacity="0.76"/><text x="416" y="372" text-anchor="middle" font-family="Arial" font-size="13" fill="#475569">C3</text><rect x="505" y="280" width="72" height="70" rx="8" fill="#2563eb" opacity="0.64"/><text x="541" y="372" text-anchor="middle" font-family="Arial" font-size="13" fill="#475569">C4</text><rect x="630" y="305" width="72" height="45" rx="8" fill="#2563eb" opacity="0.52"/><text x="666" y="372" text-anchor="middle" font-family="Arial" font-size="13" fill="#475569">C5</text><polyline points="166,210 291,175 416,145 541,125 666,112 790,105" fill="none" stroke="#f97316" stroke-width="5"/><circle cx="790" cy="105" r="7" fill="#f97316"/><text x="690" y="135" font-family="Arial" font-size="14" fill="#c2410c">Cumulative %</text><text x="110" y="118" font-family="Arial" font-size="14" fill="#334155">Frequency</text>
</svg>