<svg xmlns="http://www.w3.org/2000/svg" width="900" height="420" viewBox="0 0 900 420" role="img" aria-labelledby="title desc">
<title id="title">RACI matrix</title><desc id="desc">Clarify Responsible, Accountable, Consulted and Informed roles</desc>
<rect width="900" height="420" rx="24" fill="#f8fafc"/>
<rect x="1" y="1" width="898" height="418" rx="23" fill="none" stroke="#dbeafe" stroke-width="2"/>
<text x="42" y="50" font-family="Arial, sans-serif" font-size="26" font-weight="700" fill="#0f172a">RACI matrix</text>
<text x="42" y="78" font-family="Arial, sans-serif" font-size="14" fill="#64748b">Clarify Responsible, Accountable, Consulted and Informed roles</text>
<text x="330" y="125" text-anchor="middle" font-family="Arial" font-size="14" font-weight="700" fill="#334155">Design</text><text x="450" y="125" text-anchor="middle" font-family="Arial" font-size="14" font-weight="700" fill="#334155">Build</text><text x="570" y="125" text-anchor="middle" font-family="Arial" font-size="14" font-weight="700" fill="#334155">Test</text><text x="690" y="125" text-anchor="middle" font-family="Arial" font-size="14" font-weight="700" fill="#334155">Approve</text><text x="205" y="175" text-anchor="end" font-family="Arial" font-size="14" font-weight="700" fill="#334155">PM</text><rect x="270" y="145" width="112" height="44" rx="7" fill="#e0e7ff" stroke="#c7d2fe"/><text x="326" y="174" text-anchor="middle" font-family="Arial" font-size="16" font-weight="700" fill="#4338ca">A</text><rect x="390" y="145" width="112" height="44" rx="7" fill="#e0e7ff" stroke="#c7d2fe"/><text x="446" y="174" text-anchor="middle" font-family="Arial" font-size="16" font-weight="700" fill="#4338ca">C</text><rect x="510" y="145" width="112" height="44" rx="7" fill="#e0e7ff" stroke="#c7d2fe"/><text x="566" y="174" text-anchor="middle" font-family="Arial" font-size="16" font-weight="700" fill="#4338ca">I</text><rect x="630" y="145" width="112" height="44" rx="7" fill="#e0e7ff" stroke="#c7d2fe"/><text x="686" y="174" text-anchor="middle" font-family="Arial" font-size="16" font-weight="700" fill="#4338ca">R</text><text x="205" y="227" text-anchor="end" font-family="Arial" font-size="14" font-weight="700" fill="#334155">BA</text><rect x="270" y="197" width="112" height="44" rx="7" fill="#e0e7ff" stroke="#c7d2fe"/><text x="326" y="226" text-anchor="middle" font-family="Arial" font-size="16" font-weight="700" fill="#4338ca">R</text><rect x="390" y="197" width="112" height="44" rx="7" fill="#e0e7ff" stroke="#c7d2fe"/><text x="446" y="226" text-anchor="middle" font-family="Arial" font-size="16" font-weight="700" fill="#4338ca">C</text><rect x="510" y="197" width="112" height="44" rx="7" fill="#e0e7ff" stroke="#c7d2fe"/><text x="566" y="226" text-anchor="middle" font-family="Arial" font-size="16" font-weight="700" fill="#4338ca">C</text><rect x="630" y="197" width="112" height="44" rx="7" fill="#e0e7ff" stroke="#c7d2fe"/><text x="686" y="226" text-anchor="middle" font-family="Arial" font-size="16" font-weight="700" fill="#4338ca">I</text><text x="205" y="279" text-anchor="end" font-family="Arial" font-size="14" font-weight="700" fill="#334155">Dev</text><rect x="270" y="249" width="112" height="44" rx="7" fill="#e0e7ff" stroke="#c7d2fe"/><text x="326" y="278" text-anchor="middle" font-family="Arial" font-size="16" font-weight="700" fill="#4338ca">C</text><rect x="390" y="249" width="112" height="44" rx="7" fill="#e0e7ff" stroke="#c7d2fe"/><text x="446" y="278" text-anchor="middle" font-family="Arial" font-size="16" font-weight="700" fill="#4338ca">R</text><rect x="510" y="249" width="112" height="44" rx="7" fill="#e0e7ff" stroke="#c7d2fe"/><text x="566" y="278" text-anchor="middle" font-family="Arial" font-size="16" font-weight="700" fill="#4338ca">R</text><rect x="630" y="249" width="112" height="44" rx="7" fill="#e0e7ff" stroke="#c7d2fe"/><text x="686" y="278" text-anchor="middle" font-family="Arial" font-size="16" font-weight="700" fill="#4338ca">I</text><text x="205" y="331" text-anchor="end" font-family="Arial" font-size="14" font-weight="700" fill="#334155">Sponsor</text><rect x="270" y="301" width="112" height="44" rx="7" fill="#e0e7ff" stroke="#c7d2fe"/><text x="326" y="330" text-anchor="middle" font-family="Arial" font-size="16" font-weight="700" fill="#4338ca">I</text><rect x="390" y="301" width="112" height="44" rx="7" fill="#e0e7ff" stroke="#c7d2fe"/><text x="446" y="330" text-anchor="middle" font-family="Arial" font-size="16" font-weight="700" fill="#4338ca">I</text><rect x="510" y="301" width="112" height="44" rx="7" fill="#e0e7ff" stroke="#c7d2fe"/><text x="566" y="330" text-anchor="middle" font-family="Arial" font-size="16" font-weight="700" fill="#4338ca">C</text><rect x="630" y="301" width="112" height="44" rx="7" fill="#e0e7ff" stroke="#c7d2fe"/><text x="686" y="330" text-anchor="middle" font-family="Arial" font-size="16" font-weight="700" fill="#4338ca">A</text>
</svg>